<svg xmlns="http://www.w3.org/2000/svg" width="20" height="20" viewBox="0 0 20 20" aria-hidden="true">
  <path fill="#fff" d="M14.75.45A2.25 2.25 0 0 0 12.5 2.7c0 .89.51 1.65 1.25 2.02v1.54c0 1.8-1.46 3.26-3.26 3.26h-.97c-1.23 0-2.37.43-3.26 1.14V4.71c.74-.37 1.24-1.13 1.24-2.01A2.25 2.25 0 0 0 5.25.45 2.25 2.25 0 0 0 3 2.7c0 .9.52 1.67 1.28 2.03v10.54c-.76.36-1.28 1.13-1.28 2.03a2.25 2.25 0 0 0 2.25 2.25 2.25 2.25 0 0 0 2.25-2.25c0-.88-.5-1.64-1.24-2.01v-.52c0-1.8 1.46-3.26 3.26-3.26h.97c2.89 0 5.24-2.35 5.24-5.24V4.72c.75-.36 1.27-1.13 1.27-2.02A2.25 2.25 0 0 0 14.75.45Z"/>
</svg>
