<svg xmlns="http://www.w3.org/2000/svg" width="20" height="20" viewBox="0 0 20 20" aria-hidden="true">
  <path fill="#fff" d="M16.75 19.5H3.25A2.75 2.75 0 0 1 .5 16.75V3.25A2.75 2.75 0 0 1 3.25.5h13.49a2.75 2.75 0 0 1 2.76 2.75v13.49a2.75 2.75 0 0 1-2.75 2.76ZM3.25 1.52c-.95 0-1.73.78-1.73 1.73v13.49c0 .95.78 1.73 1.73 1.73h13.49c.95 0 1.73-.78 1.73-1.73V3.25c0-.95-.78-1.73-1.73-1.73H3.25Z"/>
  <path fill="#fff" d="M13.07 3.83c-.8 0-1.45.65-1.45 1.45 0 .57.33 1.07.81 1.31v1c0 1.16-.95 2.11-2.11 2.11h-.63c-.8 0-1.53.28-2.11.74V6.58c.48-.24.8-.73.8-1.3 0-.8-.65-1.45-1.45-1.45-.8 0-1.45.65-1.45 1.45 0 .58.34 1.08.83 1.31v6.81c-.49.23-.83.73-.83 1.31 0 .8.65 1.45 1.45 1.45.8 0 1.45-.65 1.45-1.45 0-.57-.33-1.06-.8-1.3v-.34c0-1.16.95-2.11 2.11-2.11h.63c1.87 0 3.39-1.52 3.39-3.39v-1c.48-.24.82-.73.82-1.31 0-.8-.65-1.45-1.45-1.45Z"/>
</svg>
